<?xml version="1.0" encoding="utf-8" standalone="no"?>
<!DOCTYPE svg PUBLIC "-//W3C//DTD SVG 1.1//EN"
  "http://www.w3.org/Graphics/SVG/1.1/DTD/svg11.dtd">
<svg xmlns:xlink="http://www.w3.org/1999/xlink" width="298.477596pt" height="286.751869pt" viewBox="0 0 298.477596 286.751869" xmlns="http://www.w3.org/2000/svg" version="1.1">
 <metadata>
  <rdf:RDF xmlns:dc="http://purl.org/dc/elements/1.1/" xmlns:cc="http://creativecommons.org/ns#" xmlns:rdf="http://www.w3.org/1999/02/22-rdf-syntax-ns#">
   <cc:Work>
    <dc:type rdf:resource="http://purl.org/dc/dcmitype/StillImage"/>
    <dc:date>2025-12-12T14:03:25.376996</dc:date>
    <dc:format>image/svg+xml</dc:format>
    <dc:creator>
     <cc:Agent>
      <dc:title>Matplotlib v3.9.0, https://matplotlib.org/</dc:title>
     </cc:Agent>
    </dc:creator>
   </cc:Work>
  </rdf:RDF>
 </metadata>
 <defs>
  <style type="text/css">*{stroke-linejoin: round; stroke-linecap: butt}</style>
 </defs>
 <g id="figure_1">
  <g id="patch_1">
   <path d="M 0 286.751869 
L 298.477596 286.751869 
L 298.477596 0 
L 0 0 
z
" style="fill: #ffffff"/>
  </g>
  <g id="patch_2">
   <path d="M 7.2 273.312 
L 273.312 273.312 
L 273.312 7.2 
L 7.2 7.2 
z
" style="fill: #ffffff"/>
  </g>
  <g id="pane3d_1">
   <g id="patch_3">
    <path d="M 27.293291 207.697309 
L 115.172164 134.035495 
L 113.950564 27.801991 
L 21.866234 95.000941 
" style="fill: #f2f2f2; opacity: 0.5; stroke: #f2f2f2; stroke-linejoin: miter"/>
   </g>
  </g>
  <g id="pane3d_2">
   <g id="patch_4">
    <path d="M 115.172164 134.035495 
L 256.186401 175.022766 
L 261.218702 65.130171 
L 113.950564 27.801991 
" style="fill: #e6e6e6; opacity: 0.5; stroke: #e6e6e6; stroke-linejoin: miter"/>
   </g>
  </g>
  <g id="pane3d_3">
   <g id="patch_5">
    <path d="M 27.293291 207.697309 
L 176.775269 256.518123 
L 256.186401 175.022766 
L 115.172164 134.035495 
" style="fill: #ececec; opacity: 0.5; stroke: #ececec; stroke-linejoin: miter"/>
   </g>
  </g>
  <g id="grid3d_1">
   <g id="Line3DCollection_1">
    <path d="M 36.346704 210.654154 
L 123.748219 136.528215 
L 122.88922 30.06768 
" style="fill: none; stroke: #b0b0b0; stroke-width: 0.8"/>
    <path d="M 67.842964 220.940832 
L 153.548008 145.189838 
L 153.966802 37.944941 
" style="fill: none; stroke: #b0b0b0; stroke-width: 0.8"/>
    <path d="M 100.063881 231.464184 
L 183.976048 154.034068 
L 185.728185 45.995526 
" style="fill: none; stroke: #b0b0b0; stroke-width: 0.8"/>
    <path d="M 133.034756 242.232471 
L 215.052419 163.066742 
L 218.196189 54.225218 
" style="fill: none; stroke: #b0b0b0; stroke-width: 0.8"/>
    <path d="M 166.782081 253.254347 
L 246.798063 172.293947 
L 251.394659 62.640062 
" style="fill: none; stroke: #b0b0b0; stroke-width: 0.8"/>
   </g>
  </g>
  <g id="grid3d_2">
   <g id="Line3DCollection_2">
    <path d="M 28.234093 90.353967 
L 33.348888 202.621387 
L 182.269905 250.879275 
" style="fill: none; stroke: #b0b0b0; stroke-width: 0.8"/>
    <path d="M 49.508445 74.828914 
L 53.603047 185.64395 
L 200.623502 232.043969 
" style="fill: none; stroke: #b0b0b0; stroke-width: 0.8"/>
    <path d="M 69.956779 59.906651 
L 73.104295 169.297617 
L 218.259547 213.945048 
" style="fill: none; stroke: #b0b0b0; stroke-width: 0.8"/>
    <path d="M 89.626286 45.552741 
L 91.893848 153.547842 
L 235.219312 196.540157 
" style="fill: none; stroke: #b0b0b0; stroke-width: 0.8"/>
    <path d="M 108.56063 31.735319 
L 110.009967 138.362551 
L 251.540965 179.790126 
" style="fill: none; stroke: #b0b0b0; stroke-width: 0.8"/>
   </g>
  </g>
  <g id="grid3d_3">
   <g id="Line3DCollection_3">
    <path d="M 256.282814 172.917346 
L 115.148711 131.99596 
L 27.189487 205.541739 
" style="fill: none; stroke: #b0b0b0; stroke-width: 0.8"/>
    <path d="M 256.864787 160.208534 
L 115.007184 119.688355 
L 26.562755 192.527259 
" style="fill: none; stroke: #b0b0b0; stroke-width: 0.8"/>
    <path d="M 257.452817 147.36747 
L 114.864254 107.258779 
L 25.929254 179.372192 
" style="fill: none; stroke: #b0b0b0; stroke-width: 0.8"/>
    <path d="M 258.046998 134.392076 
L 114.7199 94.705409 
L 25.288872 166.074248 
" style="fill: none; stroke: #b0b0b0; stroke-width: 0.8"/>
    <path d="M 258.647427 121.280235 
L 114.574101 82.026387 
L 24.641497 152.631085 
" style="fill: none; stroke: #b0b0b0; stroke-width: 0.8"/>
    <path d="M 259.254204 108.029783 
L 114.426836 69.219817 
L 23.987014 139.040313 
" style="fill: none; stroke: #b0b0b0; stroke-width: 0.8"/>
    <path d="M 259.867429 94.63851 
L 114.278082 56.283764 
L 23.325304 125.299486 
" style="fill: none; stroke: #b0b0b0; stroke-width: 0.8"/>
    <path d="M 260.487206 81.10416 
L 114.127816 43.216254 
L 22.656248 111.406106 
" style="fill: none; stroke: #b0b0b0; stroke-width: 0.8"/>
    <path d="M 261.113641 67.424426 
L 113.976015 30.015274 
L 21.979723 97.357618 
" style="fill: none; stroke: #b0b0b0; stroke-width: 0.8"/>
   </g>
  </g>
  <g id="axis3d_1">
   <g id="line2d_1">
    <path d="M 27.293291 207.697309 
L 176.775269 256.518123 
" style="fill: none; stroke: #000000; stroke-width: 0.8; stroke-linecap: square"/>
   </g>
   <g id="xtick_1">
    <g id="line2d_2">
     <path d="M 37.107792 210.008669 
L 34.821263 211.947892 
" style="fill: none; stroke: #000000; stroke-width: 0.8; stroke-linecap: square"/>
    </g>
    <g id="text_1">
     <!-- −10 -->
     <g transform="translate(18.265311 233.963303) scale(0.1 -0.1)">
      <defs>
       <path id="DejaVuSans-2212" d="M 678 2272 
L 4684 2272 
L 4684 1741 
L 678 1741 
L 678 2272 
z
" transform="scale(0.015625)"/>
       <path id="DejaVuSans-31" d="M 794 531 
L 1825 531 
L 1825 4091 
L 703 3866 
L 703 4441 
L 1819 4666 
L 2450 4666 
L 2450 531 
L 3481 531 
L 3481 0 
L 794 0 
L 794 531 
z
" transform="scale(0.015625)"/>
       <path id="DejaVuSans-30" d="M 2034 4250 
Q 1547 4250 1301 3770 
Q 1056 3291 1056 2328 
Q 1056 1369 1301 889 
Q 1547 409 2034 409 
Q 2525 409 2770 889 
Q 3016 1369 3016 2328 
Q 3016 3291 2770 3770 
Q 2525 4250 2034 4250 
z
M 2034 4750 
Q 2819 4750 3233 4129 
Q 3647 3509 3647 2328 
Q 3647 1150 3233 529 
Q 2819 -91 2034 -91 
Q 1250 -91 836 529 
Q 422 1150 422 2328 
Q 422 3509 836 4129 
Q 1250 4750 2034 4750 
z
" transform="scale(0.015625)"/>
      </defs>
      <use xlink:href="#DejaVuSans-2212"/>
      <use xlink:href="#DejaVuSans-31" x="83.789062"/>
      <use xlink:href="#DejaVuSans-30" x="147.412109"/>
     </g>
    </g>
   </g>
   <g id="xtick_2">
    <g id="line2d_3">
     <path d="M 68.589968 220.280587 
L 66.345714 222.264187 
" style="fill: none; stroke: #000000; stroke-width: 0.8; stroke-linecap: square"/>
    </g>
    <g id="text_2">
     <!-- −5 -->
     <g transform="translate(52.975287 244.468006) scale(0.1 -0.1)">
      <defs>
       <path id="DejaVuSans-35" d="M 691 4666 
L 3169 4666 
L 3169 4134 
L 1269 4134 
L 1269 2991 
Q 1406 3038 1543 3061 
Q 1681 3084 1819 3084 
Q 2600 3084 3056 2656 
Q 3513 2228 3513 1497 
Q 3513 744 3044 326 
Q 2575 -91 1722 -91 
Q 1428 -91 1123 -41 
Q 819 9 494 109 
L 494 744 
Q 775 591 1075 516 
Q 1375 441 1709 441 
Q 2250 441 2565 725 
Q 2881 1009 2881 1497 
Q 2881 1984 2565 2268 
Q 2250 2553 1709 2553 
Q 1456 2553 1204 2497 
Q 953 2441 691 2322 
L 691 4666 
z
" transform="scale(0.015625)"/>
      </defs>
      <use xlink:href="#DejaVuSans-2212"/>
      <use xlink:href="#DejaVuSans-35" x="83.789062"/>
     </g>
    </g>
   </g>
   <g id="xtick_3">
    <g id="line2d_4">
     <path d="M 100.79595 230.788666 
L 98.596531 232.818184 
" style="fill: none; stroke: #000000; stroke-width: 0.8; stroke-linecap: square"/>
    </g>
    <g id="text_3">
     <!-- 0 -->
     <g transform="translate(89.42202 255.215318) scale(0.1 -0.1)">
      <use xlink:href="#DejaVuSans-30"/>
     </g>
    </g>
   </g>
   <g id="xtick_4">
    <g id="line2d_5">
     <path d="M 133.750987 241.541145 
L 131.599114 243.618194 
" style="fill: none; stroke: #000000; stroke-width: 0.8; stroke-linecap: square"/>
    </g>
    <g id="text_4">
     <!-- 5 -->
     <g transform="translate(122.432593 266.213741) scale(0.1 -0.1)">
      <use xlink:href="#DejaVuSans-35"/>
     </g>
    </g>
   </g>
   <g id="xtick_5">
    <g id="line2d_6">
     <path d="M 167.481522 252.546651 
L 165.380057 254.67292 
" style="fill: none; stroke: #000000; stroke-width: 0.8; stroke-linecap: square"/>
    </g>
    <g id="text_5">
     <!-- 10 -->
     <g transform="translate(153.042327 277.472181) scale(0.1 -0.1)">
      <use xlink:href="#DejaVuSans-31"/>
      <use xlink:href="#DejaVuSans-30" x="63.623047"/>
     </g>
    </g>
   </g>
   <g id="text_6">
    <!-- X (mm) -->
    <g transform="translate(65.181379 263.567193) rotate(-341.912962) scale(0.1 -0.1)">
     <defs>
      <path id="DejaVuSans-58" d="M 403 4666 
L 1081 4666 
L 2241 2931 
L 3406 4666 
L 4084 4666 
L 2584 2425 
L 4184 0 
L 3506 0 
L 2194 1984 
L 872 0 
L 191 0 
L 1856 2491 
L 403 4666 
z
" transform="scale(0.015625)"/>
      <path id="DejaVuSans-20" transform="scale(0.015625)"/>
      <path id="DejaVuSans-28" d="M 1984 4856 
Q 1566 4138 1362 3434 
Q 1159 2731 1159 2009 
Q 1159 1288 1364 580 
Q 1569 -128 1984 -844 
L 1484 -844 
Q 1016 -109 783 600 
Q 550 1309 550 2009 
Q 550 2706 781 3412 
Q 1013 4119 1484 4856 
L 1984 4856 
z
" transform="scale(0.015625)"/>
      <path id="DejaVuSans-6d" d="M 3328 2828 
Q 3544 3216 3844 3400 
Q 4144 3584 4550 3584 
Q 5097 3584 5394 3201 
Q 5691 2819 5691 2113 
L 5691 0 
L 5113 0 
L 5113 2094 
Q 5113 2597 4934 2840 
Q 4756 3084 4391 3084 
Q 3944 3084 3684 2787 
Q 3425 2491 3425 1978 
L 3425 0 
L 2847 0 
L 2847 2094 
Q 2847 2600 2669 2842 
Q 2491 3084 2119 3084 
Q 1678 3084 1418 2786 
Q 1159 2488 1159 1978 
L 1159 0 
L 581 0 
L 581 3500 
L 1159 3500 
L 1159 2956 
Q 1356 3278 1631 3431 
Q 1906 3584 2284 3584 
Q 2666 3584 2933 3390 
Q 3200 3197 3328 2828 
z
" transform="scale(0.015625)"/>
      <path id="DejaVuSans-29" d="M 513 4856 
L 1013 4856 
Q 1481 4119 1714 3412 
Q 1947 2706 1947 2009 
Q 1947 1309 1714 600 
Q 1481 -109 1013 -844 
L 513 -844 
Q 928 -128 1133 580 
Q 1338 1288 1338 2009 
Q 1338 2731 1133 3434 
Q 928 4138 513 4856 
z
" transform="scale(0.015625)"/>
     </defs>
     <use xlink:href="#DejaVuSans-58"/>
     <use xlink:href="#DejaVuSans-20" x="68.505859"/>
     <use xlink:href="#DejaVuSans-28" x="100.292969"/>
     <use xlink:href="#DejaVuSans-6d" x="139.306641"/>
     <use xlink:href="#DejaVuSans-6d" x="236.71875"/>
     <use xlink:href="#DejaVuSans-29" x="334.130859"/>
    </g>
   </g>
  </g>
  <g id="axis3d_2">
   <g id="line2d_7">
    <path d="M 256.186401 175.022766 
L 176.775269 256.518123 
" style="fill: none; stroke: #000000; stroke-width: 0.8; stroke-linecap: square"/>
   </g>
   <g id="xtick_6">
    <g id="line2d_8">
     <path d="M 181.014943 250.472604 
L 184.783074 251.693668 
" style="fill: none; stroke: #000000; stroke-width: 0.8; stroke-linecap: square"/>
    </g>
    <g id="text_7">
     <!-- −10 -->
     <g transform="translate(184.598195 271.901005) scale(0.1 -0.1)">
      <use xlink:href="#DejaVuSans-2212"/>
      <use xlink:href="#DejaVuSans-31" x="83.789062"/>
      <use xlink:href="#DejaVuSans-30" x="147.412109"/>
     </g>
    </g>
   </g>
   <g id="xtick_7">
    <g id="line2d_9">
     <path d="M 199.385808 231.653349 
L 203.102028 232.826198 
" style="fill: none; stroke: #000000; stroke-width: 0.8; stroke-linecap: square"/>
    </g>
    <g id="text_8">
     <!-- −5 -->
     <g transform="translate(205.886851 252.786858) scale(0.1 -0.1)">
      <use xlink:href="#DejaVuSans-2212"/>
      <use xlink:href="#DejaVuSans-35" x="83.789062"/>
     </g>
    </g>
   </g>
   <g id="xtick_8">
    <g id="line2d_10">
     <path d="M 217.038742 213.569548 
L 220.704191 214.696982 
" style="fill: none; stroke: #000000; stroke-width: 0.8; stroke-linecap: square"/>
    </g>
    <g id="text_9">
     <!-- 0 -->
     <g transform="translate(227.475766 234.420429) scale(0.1 -0.1)">
      <use xlink:href="#DejaVuSans-30"/>
     </g>
    </g>
   </g>
   <g id="xtick_9">
    <g id="line2d_11">
     <path d="M 234.015023 196.178915 
L 237.630825 197.263522 
" style="fill: none; stroke: #000000; stroke-width: 0.8; stroke-linecap: square"/>
    </g>
    <g id="text_10">
     <!-- 5 -->
     <g transform="translate(244.207268 216.758684) scale(0.1 -0.1)">
      <use xlink:href="#DejaVuSans-35"/>
     </g>
    </g>
   </g>
   <g id="xtick_10">
    <g id="line2d_12">
     <path d="M 250.352825 179.442346 
L 253.920086 180.486519 
" style="fill: none; stroke: #000000; stroke-width: 0.8; stroke-linecap: square"/>
    </g>
    <g id="text_11">
     <!-- 10 -->
     <g transform="translate(257.127648 199.761832) scale(0.1 -0.1)">
      <use xlink:href="#DejaVuSans-31"/>
      <use xlink:href="#DejaVuSans-30" x="63.623047"/>
     </g>
    </g>
   </g>
   <g id="text_12">
    <!-- Y (mm) -->
    <g transform="translate(234.444052 256.978996) rotate(-45.742112) scale(0.1 -0.1)">
     <defs>
      <path id="DejaVuSans-59" d="M -13 4666 
L 666 4666 
L 1959 2747 
L 3244 4666 
L 3922 4666 
L 2272 2222 
L 2272 0 
L 1638 0 
L 1638 2222 
L -13 4666 
z
" transform="scale(0.015625)"/>
     </defs>
     <use xlink:href="#DejaVuSans-59"/>
     <use xlink:href="#DejaVuSans-20" x="61.083984"/>
     <use xlink:href="#DejaVuSans-28" x="92.871094"/>
     <use xlink:href="#DejaVuSans-6d" x="131.884766"/>
     <use xlink:href="#DejaVuSans-6d" x="229.296875"/>
     <use xlink:href="#DejaVuSans-29" x="326.708984"/>
    </g>
   </g>
  </g>
  <g id="axis3d_3">
   <g id="line2d_13">
    <path d="M 256.186401 175.022766 
L 261.218702 65.130171 
" style="fill: none; stroke: #000000; stroke-width: 0.8; stroke-linecap: square"/>
   </g>
   <g id="xtick_11">
    <g id="line2d_14">
     <path d="M 255.098262 172.573889 
L 258.654736 173.605077 
" style="fill: none; stroke: #000000; stroke-width: 0.8; stroke-linecap: square"/>
    </g>
    <g id="text_13">
     <!-- −5.0 -->
     <g transform="translate(262.405373 177.914875) scale(0.1 -0.1)">
      <defs>
       <path id="DejaVuSans-2e" d="M 684 794 
L 1344 794 
L 1344 0 
L 684 0 
L 684 794 
z
" transform="scale(0.015625)"/>
      </defs>
      <use xlink:href="#DejaVuSans-2212"/>
      <use xlink:href="#DejaVuSans-35" x="83.789062"/>
      <use xlink:href="#DejaVuSans-2e" x="147.412109"/>
      <use xlink:href="#DejaVuSans-30" x="179.199219"/>
     </g>
    </g>
   </g>
   <g id="xtick_12">
    <g id="line2d_15">
     <path d="M 255.673875 159.868362 
L 259.249462 160.889692 
" style="fill: none; stroke: #000000; stroke-width: 0.8; stroke-linecap: square"/>
    </g>
    <g id="text_14">
     <!-- −2.5 -->
     <g transform="translate(263.079845 165.230974) scale(0.1 -0.1)">
      <defs>
       <path id="DejaVuSans-32" d="M 1228 531 
L 3431 531 
L 3431 0 
L 469 0 
L 469 531 
Q 828 903 1448 1529 
Q 2069 2156 2228 2338 
Q 2531 2678 2651 2914 
Q 2772 3150 2772 3378 
Q 2772 3750 2511 3984 
Q 2250 4219 1831 4219 
Q 1534 4219 1204 4116 
Q 875 4013 500 3803 
L 500 4441 
Q 881 4594 1212 4672 
Q 1544 4750 1819 4750 
Q 2544 4750 2975 4387 
Q 3406 4025 3406 3419 
Q 3406 3131 3298 2873 
Q 3191 2616 2906 2266 
Q 2828 2175 2409 1742 
Q 1991 1309 1228 531 
z
" transform="scale(0.015625)"/>
      </defs>
      <use xlink:href="#DejaVuSans-2212"/>
      <use xlink:href="#DejaVuSans-32" x="83.789062"/>
      <use xlink:href="#DejaVuSans-2e" x="147.412109"/>
      <use xlink:href="#DejaVuSans-35" x="179.199219"/>
     </g>
    </g>
   </g>
   <g id="xtick_13">
    <g id="line2d_16">
     <path d="M 256.255475 147.03067 
L 259.850381 148.04188 
" style="fill: none; stroke: #000000; stroke-width: 0.8; stroke-linecap: square"/>
    </g>
    <g id="text_15">
     <!-- 0.0 -->
     <g transform="translate(267.951159 152.41548) scale(0.1 -0.1)">
      <use xlink:href="#DejaVuSans-30"/>
      <use xlink:href="#DejaVuSans-2e" x="63.623047"/>
      <use xlink:href="#DejaVuSans-30" x="95.410156"/>
     </g>
    </g>
   </g>
   <g id="xtick_14">
    <g id="line2d_17">
     <path d="M 256.843157 134.058738 
L 260.457591 135.059559 
" style="fill: none; stroke: #000000; stroke-width: 0.8; stroke-linecap: square"/>
    </g>
    <g id="text_16">
     <!-- 2.5 -->
     <g transform="translate(268.639736 139.466332) scale(0.1 -0.1)">
      <use xlink:href="#DejaVuSans-32"/>
      <use xlink:href="#DejaVuSans-2e" x="63.623047"/>
      <use xlink:href="#DejaVuSans-35" x="95.410156"/>
     </g>
    </g>
   </g>
   <g id="xtick_15">
    <g id="line2d_18">
     <path d="M 257.437016 120.95045 
L 261.071191 121.940608 
" style="fill: none; stroke: #000000; stroke-width: 0.8; stroke-linecap: square"/>
    </g>
    <g id="text_17">
     <!-- 5.0 -->
     <g transform="translate(269.335531 126.381431) scale(0.1 -0.1)">
      <use xlink:href="#DejaVuSans-35"/>
      <use xlink:href="#DejaVuSans-2e" x="63.623047"/>
      <use xlink:href="#DejaVuSans-30" x="95.410156"/>
     </g>
    </g>
   </g>
   <g id="xtick_16">
    <g id="line2d_19">
     <path d="M 258.03715 107.703645 
L 261.691284 108.682857 
" style="fill: none; stroke: #000000; stroke-width: 0.8; stroke-linecap: square"/>
    </g>
    <g id="text_18">
     <!-- 7.5 -->
     <g transform="translate(270.03866 113.158629) scale(0.1 -0.1)">
      <defs>
       <path id="DejaVuSans-37" d="M 525 4666 
L 3525 4666 
L 3525 4397 
L 1831 0 
L 1172 0 
L 2766 4134 
L 525 4134 
L 525 4666 
z
" transform="scale(0.015625)"/>
      </defs>
      <use xlink:href="#DejaVuSans-37"/>
      <use xlink:href="#DejaVuSans-2e" x="63.623047"/>
      <use xlink:href="#DejaVuSans-35" x="95.410156"/>
     </g>
    </g>
   </g>
   <g id="xtick_17">
    <g id="line2d_20">
     <path d="M 258.64366 94.316115 
L 262.317972 95.284093 
" style="fill: none; stroke: #000000; stroke-width: 0.8; stroke-linecap: square"/>
    </g>
    <g id="text_19">
     <!-- 10.0 -->
     <g transform="translate(267.567988 99.795735) scale(0.1 -0.1)">
      <use xlink:href="#DejaVuSans-31"/>
      <use xlink:href="#DejaVuSans-30" x="63.623047"/>
      <use xlink:href="#DejaVuSans-2e" x="127.246094"/>
      <use xlink:href="#DejaVuSans-30" x="159.033203"/>
     </g>
    </g>
   </g>
   <g id="xtick_18">
    <g id="line2d_21">
     <path d="M 259.256648 80.785606 
L 262.951362 81.742053 
" style="fill: none; stroke: #000000; stroke-width: 0.8; stroke-linecap: square"/>
    </g>
    <g id="text_20">
     <!-- 12.5 -->
     <g transform="translate(268.286135 86.290512) scale(0.1 -0.1)">
      <use xlink:href="#DejaVuSans-31"/>
      <use xlink:href="#DejaVuSans-32" x="63.623047"/>
      <use xlink:href="#DejaVuSans-2e" x="127.246094"/>
      <use xlink:href="#DejaVuSans-35" x="159.033203"/>
     </g>
    </g>
   </g>
   <g id="xtick_19">
    <g id="line2d_22">
     <path d="M 259.876217 67.109816 
L 263.591561 68.054427 
" style="fill: none; stroke: #000000; stroke-width: 0.8; stroke-linecap: square"/>
    </g>
    <g id="text_21">
     <!-- 15.0 -->
     <g transform="translate(269.011971 72.640671) scale(0.1 -0.1)">
      <use xlink:href="#DejaVuSans-31"/>
      <use xlink:href="#DejaVuSans-35" x="63.623047"/>
      <use xlink:href="#DejaVuSans-2e" x="127.246094"/>
      <use xlink:href="#DejaVuSans-30" x="159.033203"/>
     </g>
    </g>
   </g>
   <g id="text_22">
    <!-- Z (mm) -->
    <g transform="translate(300.926287 134.633851) rotate(-87.378092) scale(0.1 -0.1)">
     <defs>
      <path id="DejaVuSans-5a" d="M 359 4666 
L 4025 4666 
L 4025 4184 
L 1075 531 
L 4097 531 
L 4097 0 
L 288 0 
L 288 481 
L 3238 4134 
L 359 4134 
L 359 4666 
z
" transform="scale(0.015625)"/>
     </defs>
     <use xlink:href="#DejaVuSans-5a"/>
     <use xlink:href="#DejaVuSans-20" x="68.505859"/>
     <use xlink:href="#DejaVuSans-28" x="100.292969"/>
     <use xlink:href="#DejaVuSans-6d" x="139.306641"/>
     <use xlink:href="#DejaVuSans-6d" x="236.71875"/>
     <use xlink:href="#DejaVuSans-29" x="334.130859"/>
    </g>
   </g>
  </g>
  <g id="axes_1">
   <g id="line2d_23">
    <path d="M 179.450896 173.674394 
L 180.935769 171.99226 
L 182.122571 170.25724 
L 182.853353 168.840636 
L 183.387691 167.406494 
L 183.724754 165.962067 
L 183.864711 164.514562 
L 183.808711 163.071095 
L 183.558847 161.638661 
L 183.118132 160.224105 
L 182.490454 158.834085 
L 181.45022 157.140865 
L 180.136274 155.508112 
L 178.561397 153.947247 
L 176.740038 152.468988 
L 174.688166 151.083289 
L 172.423131 149.7993 
L 169.963509 148.625324 
L 166.782849 147.372163 
L 163.386055 146.299179 
L 159.81042 145.415562 
L 156.094467 144.728546 
L 152.277597 144.243387 
L 148.399755 143.963353 
L 144.501093 143.889725 
L 140.62165 144.021808 
L 136.801025 144.356951 
L 133.078062 144.890578 
L 129.490533 145.616227 
L 126.074828 146.5256 
L 122.86564 147.60862 
L 119.895661 148.853512 
L 117.195274 150.246878 
L 114.792252 151.773804 
L 113.034928 153.136537 
L 111.514155 154.570588 
L 110.241009 156.065279 
L 109.224818 157.609443 
L 108.473074 159.191495 
L 107.991343 160.799506 
L 107.783194 162.421289 
L 107.850138 164.044488 
L 108.191579 165.656667 
L 108.804788 167.245411 
L 109.684886 168.798424 
L 110.824852 170.303635 
L 112.21555 171.749302 
L 113.845778 173.124117 
L 115.702338 174.417312 
L 117.77013 175.618757 
L 120.506404 176.926216 
L 123.490146 178.073444 
L 126.68603 179.047737 
L 130.056159 179.838509 
L 133.560554 180.437437 
L 137.157703 180.838587 
L 140.805121 181.038493 
L 144.459942 181.036194 
L 148.079502 180.83324 
L 151.621934 180.433648 
L 155.046722 179.843822 
L 158.315246 179.072436 
L 161.391269 178.130281 
L 164.24139 177.030083 
L 166.835425 175.786297 
L 169.146743 174.414877 
L 171.152518 172.933035 
L 172.55785 171.621261 
L 173.747387 170.26296 
L 174.696385 168.862806 
L 175.400206 167.432154 
L 175.856225 165.982422 
L 176.06381 164.524986 
L 176.024267 163.071095 
L 175.740782 161.631784 
L 175.218347 160.217793 
L 174.463676 158.839496 
L 173.485106 157.506829 
L 172.292496 156.22923 
L 170.594797 154.781272 
L 168.627107 153.439582 
L 166.413751 152.217015 
L 163.981153 151.124984 
L 161.357529 150.173397 
L 159.516941 149.621213 
L 159.516941 149.621213 
" clip-path="url(#p31dc4f0d04)" style="fill: none; stroke: #000000; stroke-width: 1.5; stroke-linecap: square"/>
   </g>
   <g id="line2d_24">
    <path d="M 208.563098 173.031924 
L 210.248633 171.014084 
L 211.738526 168.958723 
L 213.029897 166.871572 
L 214.120527 164.758379 
L 215.00885 162.62489 
L 215.69394 160.476829 
L 216.175497 158.319876 
L 216.453836 156.159656 
L 216.529863 154.001713 
L 216.405061 151.851501 
L 216.081466 149.714368 
L 215.561646 147.595541 
L 214.84868 145.500115 
L 213.946135 143.433044 
L 212.858038 141.399124 
L 211.588857 139.402994 
L 210.143473 137.449119 
L 207.951366 134.917069 
L 205.46892 132.477402 
L 202.710691 130.139178 
L 199.69219 127.910839 
L 196.429795 125.800198 
L 192.940655 123.814434 
L 189.242604 121.960077 
L 185.354078 120.243013 
L 181.294033 118.668478 
L 177.081869 117.241059 
L 172.737362 115.964697 
L 167.151232 114.58663 
L 161.42943 113.454728 
L 155.612079 112.572474 
L 149.739512 111.941817 
L 143.852108 111.563178 
L 137.990117 111.435473 
L 132.193493 111.55612 
L 126.50173 111.921054 
L 120.953691 112.52474 
L 115.587429 113.360186 
L 110.440014 114.418959 
L 105.547336 115.691203 
L 100.943914 117.165658 
L 97.491629 118.48237 
L 94.261624 119.913348 
L 91.269129 121.450966 
L 88.528488 123.087079 
L 86.053079 124.813037 
L 83.855234 126.619711 
L 81.946157 128.497517 
L 80.335843 130.436447 
L 79.033003 132.426098 
L 78.044977 134.455716 
L 77.514159 135.99751 
L 77.165705 137.550796 
L 77.001052 139.110732 
L 77.021125 140.672417 
L 77.226326 142.230907 
L 77.616518 143.781224 
L 78.191018 145.318376 
L 78.948586 146.837372 
L 79.887416 148.333235 
L 81.41697 150.283202 
L 83.25728 152.171705 
L 85.399337 153.987421 
L 87.832347 155.719345 
L 90.54376 157.356865 
L 93.519318 158.889845 
L 96.743122 160.308698 
L 100.197711 161.604462 
L 103.86416 162.768871 
L 107.722194 163.794425 
L 111.750317 164.674445 
L 116.990173 165.561074 
L 122.414374 166.202056 
L 127.975098 166.59051 
L 133.623328 166.722032 
L 139.309409 166.594738 
L 144.98363 166.209283 
L 150.596792 165.568835 
L 156.100778 164.679011 
L 161.44909 163.547787 
L 166.597354 162.185361 
L 170.543757 160.937135 
L 174.315306 159.555914 
L 177.89333 158.049562 
L 181.260613 156.42658 
L 184.401481 154.696026 
L 187.301878 152.867445 
L 189.949413 150.950786 
L 192.333408 148.956327 
L 194.444911 146.894593 
L 195.396155 145.841837 
L 196.220845 144.702513 
L 197.76527 142.540741 
L 199.02101 140.344099 
L 199.985976 138.123362 
L 200.659709 135.889198 
L 201.043329 133.652113 
L 201.13947 131.422392 
L 200.952218 129.21005 
L 200.48703 127.024785 
L 199.750662 124.875941 
L 198.751083 122.772465 
L 197.497392 120.722882 
L 195.999737 118.735262 
L 194.269224 116.817201 
L 192.317834 114.975799 
L 190.15834 113.217645 
L 187.804222 111.548805 
L 184.60943 109.59673 
L 181.161359 107.802431 
L 177.489851 106.174198 
L 173.625632 104.718987 
L 170.416586 103.683216 
L 170.416586 103.683216 
" clip-path="url(#p31dc4f0d04)" style="fill: none; stroke: #000000; stroke-width: 1.5; stroke-linecap: square"/>
   </g>
   <g id="line2d_25">
    <path d="M 179.450896 173.674394 
L 208.563098 173.031924 
" clip-path="url(#p31dc4f0d04)" style="fill: none; stroke: #000000; stroke-width: 1.5; stroke-linecap: square"/>
   </g>
   <g id="line2d_26">
    <path d="M 159.516941 149.621213 
L 170.416586 103.683216 
" clip-path="url(#p31dc4f0d04)" style="fill: none; stroke: #000000; stroke-width: 1.5; stroke-linecap: square"/>
   </g>
   <g id="line2d_27">
    <path d="M 178.466906 173.381307 
L 179.909945 171.745478 
L 181.06316 170.058312 
L 181.920822 168.333534 
L 182.391872 166.935901 
L 182.67106 165.530069 
L 182.758794 164.123024 
L 182.65642 162.721658 
L 182.366202 161.332742 
L 181.891285 159.962887 
L 181.044061 158.287146 
L 179.924093 156.663304 
L 178.542777 155.102858 
L 176.91322 153.616654 
L 175.050098 152.214829 
L 172.969518 150.906759 
L 170.688872 149.701023 
L 167.714175 148.400053 
L 164.512021 147.269262 
L 161.118021 146.318519 
L 157.569156 145.555797 
L 153.903432 144.987147 
L 150.15954 144.616683 
L 146.376533 144.446572 
L 142.593498 144.477048 
L 138.849237 144.706421 
L 135.181955 145.131107 
L 131.628946 145.745661 
L 128.226289 146.542823 
L 125.008537 147.513573 
L 122.008418 148.647198 
L 119.256535 149.931372 
L 116.78107 151.352248 
L 114.607498 152.894565 
L 113.043122 154.260691 
L 111.715374 155.689481 
L 110.633887 157.170244 
L 109.806537 158.691861 
L 109.239357 160.242862 
L 108.93646 161.811502 
L 108.899981 163.385842 
L 109.130027 164.953843 
L 109.624643 166.503459 
L 110.3798 168.022728 
L 111.38939 169.499877 
L 112.645253 170.923418 
L 114.137212 172.282256 
L 115.853142 173.565781 
L 117.779047 174.763975 
L 120.344998 176.076078 
L 123.160218 177.237256 
L 126.191363 178.234673 
L 129.40248 179.05749 
L 132.755478 179.697014 
L 136.210637 180.146825 
L 139.727143 180.402865 
L 143.263652 180.463482 
L 146.778852 180.329448 
L 150.232032 180.003927 
L 153.583625 179.49241 
L 156.79574 178.802613 
L 159.832639 177.944337 
L 162.661191 176.929308 
L 165.251254 175.77098 
L 167.576014 174.484322 
L 169.612257 173.085593 
L 171.340576 171.592097 
L 173.119732 169.480324 
L 173.940147 168.114645 
L 174.522472 166.724093 
L 174.864977 165.319688 
L 174.967834 163.912378 
L 174.833067 162.512952 
L 174.464492 161.131963 
L 173.867633 159.779648 
L 173.049643 158.465861 
L 172.019209 157.200013 
L 170.786444 155.991008 
L 169.056242 154.626952 
L 167.073266 153.370028 
L 164.861785 152.23218 
L 162.448003 151.223933 
L 159.413454 150.223425 
L 153.014438 148.523328 
L 149.549113 147.950783 
L 147.488764 147.791043 
L 143.852108 147.753461 
L 140.25095 147.94019 
L 136.735915 148.346509 
L 133.356089 148.964779 
L 130.158435 149.784551 
L 127.187221 150.792688 
L 124.483471 151.973521 
L 122.407197 153.109517 
L 120.575831 154.346586 
L 119.250158 155.444868 
L 119.250158 155.444868 
" clip-path="url(#p31dc4f0d04)" style="fill: none; stroke: #000000; stroke-width: 1.5; stroke-linecap: square"/>
   </g>
   <g id="line2d_28">
    <path d="M 207.680401 169.08235 
L 209.32474 167.094604 
L 210.775384 165.071092 
L 212.029655 163.01746 
L 213.085529 160.939364 
L 213.941624 158.842453 
L 214.597189 156.732347 
L 215.052088 154.614621 
L 215.306786 152.494785 
L 215.362331 150.378271 
L 215.220335 148.270413 
L 214.882949 146.176437 
L 214.352848 144.10145 
L 213.633204 142.05042 
L 212.727662 140.028175 
L 211.64032 138.039387 
L 210.375702 136.088565 
L 208.422351 133.554003 
L 206.17536 131.104427 
L 203.648538 128.74905 
L 200.856696 126.496485 
L 197.815543 124.35473 
L 194.541599 122.331158 
L 191.052102 120.432505 
L 187.364924 118.664874 
L 183.498487 117.033722 
L 179.471686 115.543869 
L 175.303818 114.199492 
L 169.925524 112.728929 
L 164.396371 111.496682 
L 158.755683 110.506738 
L 153.04304 109.761562 
L 147.298103 109.262117 
L 141.560439 109.007871 
L 135.869357 108.996821 
L 130.263736 109.225502 
L 124.78186 109.689004 
L 119.461242 110.38099 
L 114.338453 111.293714 
L 109.448933 112.418038 
L 104.826808 113.743458 
L 100.504682 115.258131 
L 97.283796 116.597338 
L 94.289639 118.041959 
L 91.53627 119.584176 
L 89.036807 121.215689 
L 86.803351 122.927736 
L 84.846908 124.711119 
L 83.177317 126.556234 
L 81.803168 128.453101 
L 80.731733 130.391404 
L 79.968896 132.360528 
L 79.602004 133.851068 
L 79.412525 135.348175 
L 79.401274 136.847133 
L 79.568557 138.343191 
L 79.914162 139.831572 
L 80.437349 141.307488 
L 81.136844 142.766158 
L 82.340545 144.675998 
L 83.848584 146.535544 
L 85.653426 148.33381 
L 87.745821 150.060072 
L 90.114828 151.703942 
L 92.747851 153.255439 
L 95.630692 154.705065 
L 98.747621 156.043875 
L 102.081462 157.263545 
L 105.613686 158.356437 
L 110.27773 159.533853 
L 115.1798 160.490801 
L 120.276632 161.21771 
L 125.523169 161.707243 
L 130.873055 161.954375 
L 136.279173 161.956457 
L 141.694176 161.713238 
L 147.071036 161.22685 
L 152.363576 160.501761 
L 157.526988 159.544699 
L 162.518318 158.364535 
L 167.296924 156.972149 
L 171.824877 155.38026 
L 176.067321 153.603245 
L 179.234433 152.058936 
L 182.184139 150.414942 
L 184.903526 148.680384 
L 187.381272 146.864749 
L 189.607681 144.977811 
L 191.5747 143.02956 
L 192.458872 142.035606 
L 193.215039 140.958323 
L 194.64336 138.920427 
L 195.798264 136.851868 
L 196.678182 134.762799 
L 197.283086 132.663258 
L 197.614425 130.563118 
L 197.675079 128.472026 
L 197.469283 126.399367 
L 197.002561 124.354212 
L 196.28165 122.345286 
L 195.314425 120.380932 
L 194.109813 118.469082 
L 192.677719 116.617232 
L 191.028938 114.832418 
L 189.175079 113.121202 
L 187.128482 111.489652 
L 184.319043 109.57068 
L 181.255406 107.794596 
L 177.965357 106.169883 
L 174.477632 104.703746 
L 170.821702 103.402115 
L 167.121793 102.311418 
L 163.59966 101.542419 
L 159.841789 100.92559 
L 155.87179 100.472269 
L 146.439518 99.75813 
L 141.286692 99.676037 
L 136.24783 99.852111 
L 131.373706 100.277303 
L 126.712904 100.940271 
L 122.311419 101.827477 
L 118.87274 102.726903 
L 115.667202 103.76116 
L 112.71616 104.919285 
L 110.039038 106.189493 
L 107.65319 107.559251 
L 105.573758 109.015353 
L 104.83073 109.618898 
L 104.83073 109.618898 
" clip-path="url(#p31dc4f0d04)" style="fill: none; stroke: #000000; stroke-width: 1.5; stroke-linecap: square"/>
   </g>
   <g id="line2d_29">
    <path d="M 178.466906 173.381307 
L 207.680401 169.08235 
" clip-path="url(#p31dc4f0d04)" style="fill: none; stroke: #000000; stroke-width: 1.5; stroke-linecap: square"/>
   </g>
   <g id="line2d_30">
    <path d="M 119.250158 155.444868 
L 104.83073 109.618898 
" clip-path="url(#p31dc4f0d04)" style="fill: none; stroke: #000000; stroke-width: 1.5; stroke-linecap: square"/>
   </g>
   <g id="line2d_31">
    <path d="M 177.48358 173.088417 
L 178.884705 171.498838 
L 180.004237 169.859475 
L 180.836618 168.183658 
L 181.378674 166.484784 
L 181.602645 165.118057 
L 181.640855 163.751884 
L 181.49484 162.392936 
L 181.167018 161.047754 
L 180.506628 159.395342 
L 179.575483 157.786455 
L 178.383607 156.232619 
L 176.942767 154.744765 
L 175.266342 153.333165 
L 173.369185 152.007384 
L 171.26749 150.776229 
L 168.500026 149.434975 
L 165.495157 148.253748 
L 162.286764 147.243033 
L 158.910229 146.411492 
L 155.402096 145.765916 
L 151.79974 145.311214 
L 148.141038 145.050398 
L 144.464049 144.984584 
L 140.8067 145.113006 
L 137.20647 145.433033 
L 133.700085 145.940202 
L 130.323218 146.628261 
L 127.110181 147.489213 
L 124.093634 148.513386 
L 121.304288 149.689498 
L 118.770615 151.004751 
L 116.518569 152.444926 
L 114.873795 153.729334 
L 113.452526 155.080117 
L 112.264986 156.487152 
L 111.31973 157.939867 
L 110.623566 159.427314 
L 110.181475 160.938239 
L 109.996551 162.461164 
L 110.069943 163.984471 
L 110.400823 165.496486 
L 110.986356 166.985575 
L 111.821701 168.440237 
L 112.900018 169.8492 
L 114.2125 171.201519 
L 115.748423 172.486674 
L 117.495217 173.694663 
L 119.849435 175.029223 
L 122.458741 176.224313 
L 125.292204 177.266726 
L 128.316199 178.145102 
L 131.494839 178.850091 
L 134.790447 179.374481 
L 138.16406 179.713302 
L 142.145529 179.870624 
L 146.115746 179.771601 
L 150.012129 179.420288 
L 153.774017 178.824905 
L 156.84764 178.129443 
L 159.746025 177.273372 
L 162.437751 176.26833 
L 164.894343 175.127584 
L 167.090584 173.865817 
L 169.004759 172.498914 
L 170.371329 171.291645 
L 172.083852 169.25348 
L 172.873211 167.935798 
L 173.432844 166.594312 
L 173.761118 165.239652 
L 173.858234 163.882377 
L 173.726178 162.532893 
L 173.368662 161.201378 
L 172.791052 159.897703 
L 172.000283 158.631374 
L 171.004767 157.411461 
L 169.553767 156.020886 
L 167.841441 154.723295 
L 165.889501 153.531275 
L 163.721764 152.456105 
L 161.363861 151.507677 
L 158.408935 150.572552 
L 151.740806 148.878058 
L 148.359644 148.388829 
L 144.852418 148.293041 
L 141.366569 148.414428 
L 137.95131 148.749128 
L 134.654486 149.290431 
L 131.522006 150.028881 
L 128.597283 150.952387 
L 125.920696 152.046379 
L 123.851996 153.107041 
L 122.013563 154.268718 
L 120.423838 155.518505 
L 117.367876 158.366463 
L 116.334342 159.793587 
L 115.803767 160.779245 
L 115.603731 161.79609 
L 115.56139 163.071095 
L 115.734871 164.34018 
L 116.122158 165.593613 
L 116.719562 166.82177 
L 117.521742 168.015217 
L 118.744738 169.388655 
L 120.237455 170.683768 
L 121.981728 171.886303 
L 123.956468 172.9831 
L 126.137902 173.962266 
L 128.909124 174.94207 
L 129.739797 175.187975 
L 129.739797 175.187975 
" clip-path="url(#p31dc4f0d04)" style="fill: none; stroke: #000000; stroke-width: 1.5; stroke-linecap: square"/>
   </g>
   <g id="line2d_32">
    <path d="M 206.47423 165.093867 
L 208.069592 163.146128 
L 209.474219 161.164511 
L 210.685644 159.154546 
L 211.70204 157.12177 
L 212.522209 155.071706 
L 213.145571 153.009842 
L 213.572146 150.941619 
L 213.802543 148.872409 
L 213.837937 146.807502 
L 213.680052 144.75209 
L 213.331141 142.711256 
L 212.793963 140.689958 
L 212.071759 138.693021 
L 211.168233 136.725125 
L 210.087525 134.790796 
L 208.378893 132.271426 
L 206.375273 129.829347 
L 204.089659 127.473872 
L 201.536078 125.213738 
L 198.729494 123.05708 
L 195.685712 121.011427 
L 192.421294 119.083684 
L 188.953461 117.280133 
L 185.300019 115.606425 
L 181.479275 114.067581 
L 177.509959 112.667989 
L 172.368485 111.119992 
L 167.062582 109.801377 
L 161.630618 108.716598 
L 156.111262 107.868608 
L 150.5433 107.258874 
L 144.965465 106.887394 
L 139.416264 106.752714 
L 133.933807 106.851946 
L 128.555643 107.180786 
L 123.318589 107.733531 
L 118.258556 108.503103 
L 113.410371 109.481068 
L 108.807596 110.657661 
L 104.482336 112.021818 
L 100.465038 113.561212 
L 97.492213 114.90983 
L 94.748517 116.354467 
L 92.246725 117.88718 
L 89.998624 119.499588 
L 88.014942 121.182891 
L 86.305273 122.927908 
L 84.87801 124.7251 
L 83.740275 126.564609 
L 82.897854 128.436297 
L 82.355133 130.329791 
L 82.146591 131.757872 
L 82.108993 133.187768 
L 82.242533 134.614936 
L 82.546909 136.034818 
L 83.217018 137.90877 
L 84.186007 139.750872 
L 85.448914 141.55044 
L 86.999136 143.296953 
L 88.82844 144.980121 
L 90.926984 146.589952 
L 93.283344 148.116823 
L 95.884568 149.551549 
L 98.716234 150.885447 
L 101.762529 152.110403 
L 105.846026 153.477059 
L 110.202012 154.648755 
L 114.791887 155.614237 
L 119.57489 156.364224 
L 124.508538 156.891524 
L 129.5491 157.191115 
L 134.652087 157.260203 
L 139.772757 157.098241 
L 144.866623 156.706922 
L 149.889955 156.090134 
L 154.800263 155.253894 
L 159.556755 154.20624 
L 164.120767 152.957108 
L 168.456142 151.518181 
L 172.529576 149.902714 
L 176.310902 148.125356 
L 179.773328 146.201943 
L 182.297924 144.569331 
L 184.59328 142.862978 
L 186.650729 141.092117 
L 188.463152 139.26616 
L 189.275677 138.335497 
L 189.959399 137.325177 
L 191.26412 135.420343 
L 192.312021 133.489186 
L 193.102067 131.541198 
L 193.63466 129.585749 
L 193.911582 127.632036 
L 193.935946 125.689035 
L 193.712127 123.765458 
L 193.245696 121.869715 
L 192.543351 120.009877 
L 191.61284 118.193647 
L 190.462887 116.42833 
L 189.103115 114.720815 
L 187.543968 113.077547 
L 185.796634 111.504519 
L 183.365947 109.645373 
L 180.68422 107.914295 
L 177.777107 106.319814 
L 174.671264 104.869252 
L 171.394132 103.568713 
L 167.973739 102.423083 
L 163.987707 101.329167 
L 159.984731 100.508004 
L 155.678763 99.894439 
L 150.268826 99.414527 
L 145.445176 99.163803 
L 140.699174 99.157499 
L 136.079483 99.38815 
L 131.632771 99.846073 
L 127.403329 100.51947 
L 123.432695 101.394542 
L 119.759291 102.455615 
L 116.418058 103.68528 
L 113.910015 104.825137 
L 111.670157 106.05718 
L 109.712183 107.369079 
L 105.774248 110.46775 
L 103.729473 112.31299 
L 101.937461 114.275803 
L 100.701472 115.924618 
L 100.185929 116.758349 
L 100.053939 118.096986 
L 100.141303 119.428745 
L 100.445618 120.745942 
L 100.963317 122.041005 
L 101.689689 123.306512 
L 102.618892 124.535242 
L 104.054945 126.00883 
L 105.781098 127.401079 
L 107.778989 128.699826 
L 110.027958 129.893856 
L 112.505248 130.973021 
L 115.186233 131.928341 
L 118.635248 132.900471 
L 122.291895 133.672422 
L 123.548343 133.883806 
L 123.548343 133.883806 
" clip-path="url(#p31dc4f0d04)" style="fill: none; stroke: #000000; stroke-width: 1.5; stroke-linecap: square"/>
   </g>
   <g id="line2d_33">
    <path d="M 177.48358 173.088417 
L 206.47423 165.093867 
" clip-path="url(#p31dc4f0d04)" style="fill: none; stroke: #000000; stroke-width: 1.5; stroke-linecap: square"/>
   </g>
   <g id="line2d_34">
    <path d="M 129.739797 175.187975 
L 123.548343 133.883806 
" clip-path="url(#p31dc4f0d04)" style="fill: none; stroke: #000000; stroke-width: 1.5; stroke-linecap: square"/>
   </g>
   <g id="line2d_35">
    <path d="M 176.500919 172.795726 
L 177.86005 171.252338 
L 178.945801 169.66073 
L 179.752791 168.033835 
L 180.277948 166.384654 
L 180.520469 164.726139 
L 180.511861 163.401219 
L 180.250628 161.758006 
L 179.716037 160.140628 
L 178.915257 158.560971 
L 177.85732 157.030443 
L 176.553002 155.559897 
L 175.014698 154.159571 
L 173.256296 152.839035 
L 171.293037 151.60714 
L 168.689977 150.257212 
L 165.846178 149.059008 
L 162.794038 148.023285 
L 159.567527 147.159031 
L 156.201858 146.473423 
L 152.733152 145.971808 
L 149.19812 145.657684 
L 145.039427 145.53027 
L 140.899406 145.659672 
L 136.835933 146.041969 
L 133.456749 146.56555 
L 130.209746 147.263242 
L 127.127939 148.126931 
L 124.242664 149.146881 
L 121.583289 150.311814 
L 119.176936 151.608998 
L 117.048209 153.024348 
L 115.218932 154.542542 
L 113.936937 155.874443 
L 112.885163 157.25635 
L 112.07111 158.67784 
L 111.500545 160.128161 
L 111.177437 161.596307 
L 111.103895 163.071095 
L 111.280132 164.541247 
L 111.704434 165.995481 
L 112.373146 167.422598 
L 113.280676 168.811573 
L 114.419519 170.151652 
L 115.780291 171.432443 
L 117.351796 172.644009 
L 119.497436 173.993336 
L 121.902366 175.214486 
L 124.538028 176.293974 
L 127.37311 177.220021 
L 130.373936 177.982716 
L 133.504906 178.574158 
L 137.2727 179.040131 
L 141.106757 179.259815 
L 144.946018 179.231943 
L 148.729898 178.959379 
L 152.399391 178.44903 
L 155.898123 177.711661 
L 158.721017 176.909739 
L 161.348995 175.962505 
L 163.754217 174.882524 
L 165.911933 173.683757 
L 167.800738 172.381348 
L 169.402755 170.991402 
L 171.048517 169.026755 
L 171.806718 167.757026 
L 172.343545 166.464571 
L 172.657465 165.159632 
L 172.748711 163.852379 
L 172.619236 162.552836 
L 172.272655 161.270804 
L 171.714174 160.015792 
L 170.950514 158.79695 
L 169.774851 157.394351 
L 168.33212 156.070579 
L 166.641422 154.838733 
L 164.724106 153.710714 
L 162.603503 152.697145 
L 159.906013 151.671588 
L 155.803747 150.429201 
L 152.788501 149.681827 
L 149.59897 149.12275 
L 147.227676 148.88805 
L 143.852108 148.858618 
L 140.51213 149.037586 
L 137.254868 149.420309 
L 134.125927 149.999416 
L 131.168839 150.764915 
L 128.424531 151.704317 
L 125.930805 152.802794 
L 123.721847 154.043358 
L 122.078045 155.20548 
L 119.442804 157.464425 
L 118.234072 158.776835 
L 117.288187 160.158144 
L 116.826018 161.111563 
L 116.666362 162.336067 
L 116.714557 163.559996 
L 116.969484 164.773966 
L 117.428417 165.968668 
L 118.087033 167.134937 
L 119.132544 168.484358 
L 120.443919 169.765102 
L 122.004993 170.963099 
L 123.796716 172.065255 
L 125.797373 173.059627 
L 128.36324 174.069382 
L 132.291255 175.299632 
L 135.192831 176.045164 
L 138.276178 176.604566 
L 140.570487 176.859405 
L 143.852108 176.884221 
L 147.095751 176.699835 
L 150.251087 176.311644 
L 153.269907 175.728317 
L 156.106949 174.961584 
L 158.720639 174.025977 
L 161.073742 172.938508 
L 163.133902 171.718323 
L 164.645946 170.582615 
L 165.497625 169.780872 
L 165.497625 169.780872 
" clip-path="url(#p31dc4f0d04)" style="fill: none; stroke: #000000; stroke-width: 1.5; stroke-linecap: square"/>
   </g>
   <g id="line2d_36">
    <path d="M 204.950005 161.087559 
L 206.960318 158.549386 
L 208.249519 156.609976 
L 209.349078 154.645886 
L 210.257575 152.662498 
L 210.974197 150.665172 
L 211.498727 148.659223 
L 211.831528 146.64991 
L 211.973525 144.642415 
L 211.92619 142.641831 
L 211.691519 140.653149 
L 211.272011 138.681243 
L 210.67065 136.730863 
L 209.890879 134.806618 
L 208.936577 132.912974 
L 207.400162 130.44314 
L 205.572401 128.045109 
L 203.465681 125.728104 
L 201.093429 123.500783 
L 198.470017 121.371225 
L 195.610669 119.346915 
L 192.531368 117.434734 
L 189.248771 115.640948 
L 185.780124 113.971211 
L 182.143182 112.430556 
L 177.388082 110.692924 
L 172.434753 109.171103 
L 167.320148 107.870859 
L 162.081681 106.796475 
L 156.757037 105.950762 
L 151.383989 105.335074 
L 146.000221 104.949332 
L 140.643158 104.792035 
L 135.349796 104.860287 
L 130.156536 105.149811 
L 125.09901 105.654976 
L 120.211918 106.368818 
L 115.528845 107.283063 
L 111.082086 108.388162 
L 106.902458 109.673321 
L 103.019111 111.12654 
L 99.459336 112.734659 
L 96.861512 114.12313 
L 94.498844 115.593839 
L 92.382217 117.138591 
L 90.521458 118.748817 
L 88.925267 120.415596 
L 87.601153 122.129693 
L 86.555373 123.881593 
L 85.792875 125.661541 
L 85.31724 127.459586 
L 85.130637 129.265624 
L 85.233778 131.069453 
L 85.625884 132.860822 
L 86.304655 134.62949 
L 87.266253 136.365281 
L 88.505294 138.058149 
L 90.014851 139.698234 
L 91.786468 141.275934 
L 93.810188 142.781959 
L 96.07459 144.207404 
L 98.566844 145.543803 
L 101.272775 146.783198 
L 104.93204 148.184816 
L 108.868259 149.410274 
L 113.046182 150.448155 
L 117.428376 151.288838 
L 121.975621 151.924609 
L 126.647342 152.349752 
L 131.402055 152.560608 
L 136.197837 152.555608 
L 140.99279 152.335276 
L 145.745517 151.902204 
L 150.415573 151.260997 
L 154.963907 150.418192 
L 159.353267 149.38215 
L 163.548579 148.162927 
L 167.517281 146.772123 
L 171.229617 145.222721 
L 174.658875 143.528902 
L 177.78159 141.705865 
L 180.577678 139.769633 
L 182.568103 138.150319 
L 184.33192 136.477944 
L 185.863701 134.761362 
L 186.471353 133.822534 
L 187.645441 132.059178 
L 188.58053 130.273965 
L 189.276129 128.475691 
L 189.733078 126.673024 
L 189.953493 124.87445 
L 189.940715 123.088239 
L 189.69925 121.322398 
L 189.234704 119.58464 
L 188.553714 117.88235 
L 187.663881 116.222559 
L 186.573695 114.611914 
L 185.292467 113.056663 
L 183.437661 111.199334 
L 181.321203 109.448053 
L 178.965606 107.812146 
L 176.394585 106.29981 
L 173.632841 104.918105 
L 170.705858 103.672939 
L 167.012093 102.365582 
L 162.694254 101.123428 
L 159.127453 100.298387 
L 155.272498 99.655932 
L 151.163167 99.212877 
L 146.03769 98.925428 
L 141.691523 98.914931 
L 137.467513 99.121799 
L 133.408638 99.536476 
L 129.555449 100.147454 
L 125.945718 100.941386 
L 122.614093 101.903231 
L 119.591771 103.016394 
L 116.906194 104.262899 
L 114.942455 105.389707 
L 113.240158 106.584173 
L 107.909012 110.955855 
L 106.284974 112.67871 
L 104.906363 114.499307 
L 104.42814 115.252918 
L 104.354301 115.873309 
L 104.439984 117.074272 
L 104.72219 118.260268 
L 105.197094 119.424456 
L 105.859837 120.560162 
L 106.943366 121.929925 
L 108.297514 123.233056 
L 109.906379 124.458227 
L 111.75194 125.594954 
L 113.814228 126.633694 
L 116.544377 127.738945 
L 119.514924 128.678358 
L 122.683005 129.441877 
L 126.003905 130.022067 
L 126.569036 130.100569 
L 129.510559 131.449226 
L 132.74041 132.66624 
L 136.230176 133.733896 
L 139.313045 134.497638 
L 140.614427 134.477592 
L 144.490693 134.054702 
L 148.241955 133.435376 
L 151.824753 132.630833 
L 155.199248 131.654537 
L 158.329716 130.521923 
L 161.184956 129.250089 
L 163.738598 127.857482 
L 165.969312 126.363558 
L 167.860924 124.788465 
L 169.17014 123.428674 
L 170.039863 122.318511 
L 170.15079 121.984624 
L 170.15079 121.984624 
" clip-path="url(#p31dc4f0d04)" style="fill: none; stroke: #000000; stroke-width: 1.5; stroke-linecap: square"/>
   </g>
   <g id="line2d_37">
    <path d="M 176.500919 172.795726 
L 204.950005 161.087559 
" clip-path="url(#p31dc4f0d04)" style="fill: none; stroke: #000000; stroke-width: 1.5; stroke-linecap: square"/>
   </g>
   <g id="line2d_38">
    <path d="M 165.497625 169.780872 
L 170.15079 121.984624 
" clip-path="url(#p31dc4f0d04)" style="fill: none; stroke: #000000; stroke-width: 1.5; stroke-linecap: square"/>
   </g>
   <g id="line2d_39">
    <path d="M 175.518921 172.503233 
L 176.835978 171.005979 
L 177.887852 169.462076 
L 178.669341 167.884064 
L 179.177479 166.284547 
L 179.411499 164.676085 
L 179.372779 163.071095 
L 179.064772 161.481754 
L 178.492921 159.919914 
L 177.664563 158.397021 
L 176.58882 156.924036 
L 175.276488 155.511375 
L 173.739911 154.168844 
L 171.992858 152.905592 
L 169.639855 151.506168 
L 167.033727 150.246185 
L 164.204763 149.137182 
L 161.185001 148.189011 
L 158.007899 147.409788 
L 154.708009 146.805855 
L 150.750111 146.328788 
L 146.730043 146.10056 
L 142.70484 146.121964 
L 138.731073 146.390494 
L 134.864194 146.900392 
L 131.157912 147.642737 
L 128.147911 148.455039 
L 125.324272 149.420099 
L 122.715712 150.527145 
L 120.348788 151.763987 
L 118.247628 153.117114 
L 116.433683 154.571804 
L 115.154923 155.850258 
L 114.097608 157.178636 
L 113.269203 158.546897 
L 112.675504 159.944673 
L 112.320568 161.361348 
L 112.206664 162.786125 
L 112.334227 164.208112 
L 112.701837 165.616405 
L 113.306199 167.000171 
L 114.14215 168.348741 
L 115.202677 169.651696 
L 116.478957 170.898957 
L 118.280272 172.308609 
L 120.355488 173.608529 
L 122.679893 174.784329 
L 125.225815 175.823099 
L 127.962953 176.71358 
L 130.858768 177.446321 
L 134.391845 178.091912 
L 138.037229 178.504253 
L 141.736584 178.678854 
L 145.431156 178.615208 
L 149.062843 178.316768 
L 152.57525 177.790841 
L 155.914685 177.048398 
L 159.031086 176.103819 
L 161.490058 175.146456 
L 163.725842 174.065963 
L 165.715768 172.876202 
L 167.440446 171.592094 
L 168.644452 170.455633 
L 169.84302 169.04105 
L 170.612245 167.824738 
L 171.168929 166.584818 
L 171.511297 165.331146 
L 171.639284 164.073526 
L 171.554483 162.821632 
L 171.260103 161.58494 
L 170.760896 160.372654 
L 170.063086 159.193646 
L 168.974372 157.834671 
L 167.626314 156.549605 
L 166.036981 155.35121 
L 164.22665 154.25111 
L 161.865024 153.105698 
L 159.271058 152.122454 
L 154.927656 150.817624 
L 152.00595 150.124586 
L 148.922429 149.614053 
L 146.632905 149.421635 
L 143.390408 149.425104 
L 140.190099 149.628493 
L 137.077157 150.026814 
L 134.095173 150.612465 
L 131.285618 151.375335 
L 128.687329 152.302936 
L 126.336015 153.380558 
L 124.263784 154.591458 
L 122.731111 155.721417 
L 120.036736 158.107077 
L 118.961735 159.389006 
L 118.14402 160.7325 
L 117.873863 161.425511 
L 117.766452 162.601144 
L 117.858388 163.773893 
L 118.148141 164.934765 
L 118.632644 166.074862 
L 119.464547 167.403276 
L 120.559422 168.674584 
L 121.903489 169.874829 
L 123.480112 170.990898 
L 125.269982 172.010686 
L 127.598541 173.064225 
L 130.149408 173.956766 
L 135.569148 175.481334 
L 138.518647 176.016063 
L 141.159273 176.288795 
L 144.299033 176.280388 
L 147.393905 176.072417 
L 150.396074 175.670643 
L 153.259911 175.083917 
L 155.94274 174.323969 
L 158.405535 173.405147 
L 160.613512 172.344109 
L 162.536633 171.159483 
L 163.939277 170.061021 
L 166.35268 167.761059 
L 167.299715 166.539752 
L 167.996199 165.267417 
L 168.272576 164.395255 
L 168.26393 163.290925 
L 168.008836 161.980769 
L 167.493321 160.70033 
L 166.726911 159.463125 
L 165.721668 158.281945 
L 164.491992 157.168735 
L 162.795867 155.970518 
L 160.846314 154.895428 
L 158.675828 153.957072 
L 156.319396 153.166857 
L 155.617107 152.969625 
L 155.617107 152.969625 
" clip-path="url(#p31dc4f0d04)" style="fill: none; stroke: #000000; stroke-width: 1.5; stroke-linecap: square"/>
   </g>
   <g id="line2d_40">
    <path d="M 203.115005 157.084733 
L 205.041058 154.625547 
L 206.642558 152.11659 
L 207.628165 150.20965 
L 208.427845 148.286869 
L 209.041155 146.353413 
L 209.468224 144.414395 
L 209.709735 142.474864 
L 209.766907 140.539785 
L 209.641481 138.61403 
L 209.335696 136.702365 
L 208.852267 134.809435 
L 208.194369 132.939757 
L 207.365611 131.097707 
L 206.001826 128.691908 
L 204.352085 126.352323 
L 202.428124 124.088029 
L 200.242723 121.907561 
L 197.809607 119.818894 
L 195.143358 117.829427 
L 192.259323 115.945972 
L 189.173527 114.17475 
L 185.902589 112.521376 
L 182.463645 110.990867 
L 177.955511 109.25717 
L 173.247447 107.729584 
L 168.375223 106.413933 
L 163.375081 105.314586 
L 158.283536 104.434472 
L 153.137195 103.775099 
L 147.972579 103.336568 
L 142.825948 103.117599 
L 137.733134 103.115549 
L 132.729369 103.326432 
L 127.849124 103.744951 
L 123.125933 104.364516 
L 118.592228 105.177277 
L 114.279158 106.174156 
L 110.216417 107.344882 
L 106.432059 108.678034 
L 102.95231 110.161086 
L 99.801388 111.780468 
L 97.532275 113.16438 
L 95.497922 114.61837 
L 93.707465 116.134216 
L 92.16894 117.703378 
L 90.889226 119.317035 
L 89.873987 120.966117 
L 89.127624 122.641345 
L 88.653227 124.333275 
L 88.452531 126.032338 
L 88.525884 127.728894 
L 88.872215 129.413279 
L 89.489016 131.075859 
L 90.37233 132.707085 
L 91.516748 134.297552 
L 92.915417 135.838051 
L 94.560061 137.319634 
L 96.44101 138.733672 
L 98.547244 140.071908 
L 100.866444 141.326521 
L 104.044179 142.766069 
L 107.504451 144.050409 
L 111.215753 145.167886 
L 115.144358 146.108441 
L 119.254668 146.86373 
L 123.509594 147.427217 
L 127.870964 147.794241 
L 132.299944 147.962063 
L 136.757469 147.92988 
L 141.204677 147.69882 
L 145.603339 147.271907 
L 149.916269 146.653999 
L 154.107719 145.851701 
L 158.143747 144.873266 
L 161.992544 143.72846 
L 165.624735 142.428427 
L 169.013625 140.985526 
L 172.135415 139.41317 
L 174.969358 137.725649 
L 177.497885 135.937953 
L 179.706671 134.065597 
L 181.584669 132.124441 
L 182.241395 131.332306 
L 182.769673 130.469088 
L 183.806598 128.854829 
L 184.623455 127.223299 
L 185.220312 125.582567 
L 185.598453 123.940566 
L 185.76033 122.305045 
L 185.709516 120.683535 
L 185.45064 119.083309 
L 184.989331 117.511353 
L 184.332155 115.974336 
L 183.486546 114.478585 
L 182.177168 112.675973 
L 180.603962 110.957923 
L 178.786184 109.334248 
L 176.74446 107.813739 
L 174.500576 106.404135 
L 172.077272 105.112103 
L 168.965602 103.724652 
L 165.67107 102.522087 
L 162.236008 101.509758 
L 155.80586 99.953288 
L 152.252644 99.417946 
L 148.471808 99.068522 
L 144.504815 98.959867 
L 140.63624 99.05193 
L 136.906216 99.336204 
L 133.352574 99.802339 
L 130.010502 100.438261 
L 126.912226 101.230315 
L 124.086705 102.163409 
L 121.559349 103.221182 
L 119.351766 104.386181 
L 117.481533 105.640053 
L 116.19047 106.739115 
L 115.368198 107.439461 
L 113.256369 109.02255 
L 111.697503 110.44842 
L 110.341757 111.964516 
L 109.207386 113.563557 
L 108.848264 114.21494 
L 109.046876 115.540736 
L 109.516222 116.837403 
L 110.247177 118.093273 
L 111.228414 119.297203 
L 112.446505 120.43868 
L 113.886061 121.507927 
L 115.881533 122.683134 
L 118.138297 123.72776 
L 120.620719 124.630159 
L 123.290857 125.380914 
L 126.590304 126.055831 
L 129.435763 126.597383 
L 131.994922 127.711697 
L 134.799728 128.711337 
L 137.825885 129.581298 
L 141.045073 130.30768 
L 142.173316 130.23974 
L 146.042464 129.676355 
L 149.712217 128.890912 
L 153.127001 127.902865 
L 155.814045 126.911764 
L 158.251973 125.804102 
L 160.419212 124.596691 
L 162.298785 123.307124 
L 163.878386 121.953474 
L 165.150363 120.554012 
L 165.825738 119.604577 
L 166.026849 119.077963 
L 167.92994 117.978923 
L 169.323007 116.935408 
L 170.470326 115.809536 
L 171.349668 114.613501 
L 171.579754 114.201527 
L 171.208601 113.157286 
L 170.550632 111.892675 
L 169.700599 110.684361 
L 168.447229 109.319013 
L 166.964654 108.056488 
L 165.281458 106.906241 
L 163.104232 105.716323 
L 160.74404 104.698657 
L 158.251035 103.858966 
L 155.303599 103.120205 
L 154.931265 103.044402 
L 154.931265 103.044402 
" clip-path="url(#p31dc4f0d04)" style="fill: none; stroke: #000000; stroke-width: 1.5; stroke-linecap: square"/>
   </g>
   <g id="line2d_41">
    <path d="M 175.518921 172.503233 
L 203.115005 157.084733 
" clip-path="url(#p31dc4f0d04)" style="fill: none; stroke: #000000; stroke-width: 1.5; stroke-linecap: square"/>
   </g>
   <g id="line2d_42">
    <path d="M 155.617107 152.969625 
L 154.931265 103.044402 
" clip-path="url(#p31dc4f0d04)" style="fill: none; stroke: #000000; stroke-width: 1.5; stroke-linecap: square"/>
   </g>
   <g id="line2d_43">
    <path d="M 174.537585 172.210936 
L 175.81249 170.759759 
L 176.830389 169.263513 
L 177.586266 167.734345 
L 178.077265 166.184464 
L 178.302658 164.626037 
L 178.263796 163.071095 
L 177.96404 161.531436 
L 177.408679 160.018545 
L 176.60484 158.543512 
L 175.561382 157.116961 
L 174.288788 155.748985 
L 172.799045 154.449087 
L 170.743631 152.991505 
L 168.420309 151.658689 
L 165.856836 150.46313 
L 163.082933 149.41573 
L 160.129966 148.52574 
L 157.030627 147.800713 
L 153.274732 147.171017 
L 149.420167 146.779955 
L 145.522223 146.63052 
L 141.636165 146.722465 
L 137.816592 147.052346 
L 134.116811 147.613582 
L 130.588218 148.396544 
L 127.279691 149.388671 
L 124.653756 150.393977 
L 122.249876 151.530509 
L 120.092488 152.785736 
L 118.203528 154.14591 
L 116.602193 155.596185 
L 115.49927 156.862191 
L 114.615148 158.170208 
L 113.955957 159.510309 
L 113.526165 160.872307 
L 113.328524 162.245821 
L 113.364029 163.620358 
L 113.631887 164.985385 
L 114.129502 166.330421 
L 114.852475 167.645113 
L 115.794618 168.919329 
L 116.947989 170.143238 
L 118.597149 171.532265 
L 120.516716 172.819885 
L 122.683724 173.991886 
L 125.07229 175.035431 
L 127.65392 175.939226 
L 130.868711 176.804334 
L 134.252409 177.454185 
L 137.750553 177.880323 
L 141.307167 178.078043 
L 144.865774 178.04646 
L 148.370429 177.78849 
L 151.766723 177.31076 
L 155.002747 176.623433 
L 158.029979 175.73997 
L 160.804084 174.676821 
L 162.950368 173.636942 
L 164.859924 172.492384 
L 166.514222 171.257507 
L 167.667749 170.164717 
L 168.816028 168.805156 
L 169.675058 167.399703 
L 170.165931 166.205206 
L 170.450776 164.999635 
L 170.5299 163.792388 
L 170.405199 162.592723 
L 170.080106 161.40969 
L 169.559523 160.252067 
L 168.685745 158.908321 
L 167.552986 157.627146 
L 166.17714 156.421458 
L 164.576382 155.303138 
L 162.451635 154.123131 
L 160.083472 153.091615 
L 157.509768 152.221205 
L 152.079445 150.744195 
L 149.143265 150.228803 
L 146.520575 149.973004 
L 142.967077 149.996104 
L 139.476572 150.269062 
L 136.524688 150.70654 
L 133.711611 151.320968 
L 131.076392 152.10182 
L 128.655362 153.03633 
L 126.481659 154.109661 
L 124.584787 155.305091 
L 123.198653 156.413025 
L 120.350817 159.131657 
L 119.48635 160.39919 
L 118.970445 161.494973 
L 118.873569 162.62109 
L 118.967629 163.743902 
L 119.251011 164.854801 
L 119.836527 166.160185 
L 120.682054 167.421797 
L 121.776552 168.625785 
L 123.106149 169.758985 
L 124.654288 170.809085 
L 126.71112 171.914149 
L 129.005281 172.8748 
L 131.499041 173.677482 
L 137.536335 175.231289 
L 140.428304 175.639286 
L 142.137791 175.718864 
L 145.554035 175.627453 
L 148.886417 175.289986 
L 152.068416 174.717107 
L 154.680293 174.034771 
L 157.091211 173.197086 
L 159.266953 172.219439 
L 161.177721 171.119178 
L 162.79853 169.915259 
L 164.951832 167.917574 
L 165.933208 166.77247 
L 166.67964 165.57432 
L 167.114569 164.544648 
L 167.183072 163.912766 
L 167.062227 162.652949 
L 166.689249 161.415284 
L 166.072078 160.212971 
L 165.221164 159.058571 
L 164.149283 157.963884 
L 162.639476 156.776762 
L 160.876222 155.701485 
L 158.889545 154.751841 
L 156.712049 153.939548 
L 152.420746 152.656886 
L 149.573672 152.054973 
L 146.568563 151.657429 
L 143.459767 151.475092 
L 140.304345 151.515067 
L 137.161513 151.781141 
L 134.245403 152.442683 
L 131.552045 153.299704 
L 129.41614 154.195472 
L 127.516774 155.212402 
L 125.879382 156.334484 
L 124.882303 157.190747 
L 124.882303 157.190747 
" clip-path="url(#p31dc4f0d04)" style="fill: none; stroke: #000000; stroke-width: 1.5; stroke-linecap: square"/>
   </g>
   <g id="line2d_44">
    <path d="M 200.978339 153.106777 
L 202.810749 150.738412 
L 204.329159 148.324146 
L 205.529994 145.875877 
L 206.221087 144.02448 
L 206.732426 142.165556 
L 207.064465 140.30399 
L 207.218183 138.444595 
L 207.195069 136.592098 
L 206.997103 134.751125 
L 206.626736 132.926195 
L 206.086871 131.121704 
L 205.109205 128.754861 
L 203.845195 126.441644 
L 202.305058 124.191302 
L 200.500116 122.012584 
L 198.442702 119.913719 
L 196.146075 117.90239 
L 193.624323 115.985726 
L 190.89228 114.170285 
L 187.965437 112.462051 
L 184.859864 110.866423 
L 180.751838 109.037517 
L 176.423724 107.400147 
L 171.909591 105.960993 
L 167.244103 104.72531 
L 162.462317 103.696944 
L 157.599497 102.878343 
L 152.690925 102.270577 
L 147.771724 101.873356 
L 142.876689 101.685056 
L 138.040119 101.702738 
L 133.295644 101.922176 
L 128.676064 102.337883 
L 124.213183 102.943142 
L 119.937635 103.730039 
L 115.87872 104.689498 
L 112.064229 105.811323 
L 108.520269 107.084247 
L 105.271091 108.495981 
L 102.338908 110.033276 
L 99.743724 111.681995 
L 97.922142 113.07117 
L 96.335422 114.514104 
L 94.990322 116.002534 
L 93.892453 117.527966 
L 93.046234 119.081708 
L 92.45485 120.654916 
L 92.120212 122.238627 
L 92.042929 123.823812 
L 92.222283 125.40142 
L 92.656211 126.962427 
L 93.341294 128.497884 
L 94.272758 129.998976 
L 95.444486 131.457069 
L 96.849032 132.863769 
L 98.477652 134.21097 
L 100.320345 135.490913 
L 102.907565 136.985083 
L 105.787283 138.349302 
L 108.932532 139.571419 
L 112.314031 140.640651 
L 115.900482 141.547703 
L 119.658892 142.284867 
L 123.554928 142.846105 
L 127.553293 143.227108 
L 131.618108 143.425337 
L 136.532839 143.421003 
L 141.42951 143.154517 
L 146.247693 142.631502 
L 150.929292 141.861003 
L 154.686565 141.038614 
L 158.281088 140.061463 
L 161.68535 138.939487 
L 164.874269 137.683768 
L 167.825387 136.306381 
L 170.519036 134.820236 
L 172.938447 133.238921 
L 175.069828 131.576535 
L 176.902403 129.847531 
L 178.42841 128.066554 
L 178.874346 127.282644 
L 179.96029 125.457443 
L 180.603944 123.984513 
L 181.048424 122.508135 
L 181.29574 121.035438 
L 181.348943 119.573355 
L 181.21208 118.128592 
L 180.890133 116.707594 
L 180.388966 115.316519 
L 179.52073 113.628627 
L 178.397651 112.007275 
L 177.036072 110.462268 
L 175.453788 109.002494 
L 173.669851 107.635882 
L 171.291315 106.128638 
L 168.687743 104.775606 
L 165.896795 103.584789 
L 162.956984 102.562086 
L 159.907229 101.711309 
L 157.180706 100.93989 
L 154.303421 100.284329 
L 150.666553 99.703227 
L 147.340036 99.377696 
L 143.852108 99.344684 
L 139.917376 99.536165 
L 136.188087 99.95309 
L 132.715144 100.577871 
L 129.544133 101.390257 
L 126.714733 102.367672 
L 124.586812 103.318244 
L 122.751334 104.355664 
L 121.22134 105.46289 
L 120.005849 106.622439 
L 119.512003 107.027652 
L 117.697566 108.348845 
L 116.108283 109.788535 
L 114.772399 111.337316 
L 113.872062 112.70337 
L 113.599603 113.258707 
L 113.950811 114.394004 
L 114.532617 115.493333 
L 115.334342 116.546876 
L 116.343466 117.545429 
L 117.808035 118.659184 
L 119.523179 119.668345 
L 121.45861 120.561504 
L 123.951457 121.444391 
L 126.645003 122.145102 
L 129.482465 122.656124 
L 131.897392 123.061568 
L 134.389488 124.105102 
L 137.156398 125.016796 
L 140.165685 125.777267 
L 142.442512 126.218021 
L 143.383458 126.173207 
L 146.586232 125.585194 
L 149.577761 124.818772 
L 152.314581 123.893611 
L 154.760164 122.831684 
L 156.885395 121.656705 
L 158.668846 120.393548 
L 159.914931 119.25996 
L 160.895662 118.096373 
L 161.510075 117.115252 
L 161.618045 116.677631 
L 163.15938 115.777502 
L 164.462883 114.77339 
L 165.497071 113.678685 
L 166.147616 112.679951 
L 166.346979 112.15445 
L 165.609138 110.914173 
L 164.64842 109.751985 
L 163.488696 108.677837 
L 161.918352 107.546987 
L 160.154745 106.557701 
L 157.959344 105.609702 
L 155.636298 104.862094 
L 153.252022 104.315724 
L 151.90894 103.994822 
L 149.706616 103.329697 
L 147.216802 102.82758 
L 144.486194 102.513669 
L 141.570236 102.410087 
L 138.532303 102.535207 
L 135.442697 102.903012 
L 133.052444 103.362817 
L 131.641695 104.050662 
L 130.29656 104.921777 
L 129.269731 105.840663 
L 128.562782 106.785144 
L 128.562782 106.785144 
" clip-path="url(#p31dc4f0d04)" style="fill: none; stroke: #000000; stroke-width: 1.5; stroke-linecap: square"/>
   </g>
   <g id="line2d_45">
    <path d="M 174.537585 172.210936 
L 200.978339 153.106777 
" clip-path="url(#p31dc4f0d04)" style="fill: none; stroke: #000000; stroke-width: 1.5; stroke-linecap: square"/>
   </g>
   <g id="line2d_46">
    <path d="M 124.882303 157.190747 
L 128.562782 106.785144 
" clip-path="url(#p31dc4f0d04)" style="fill: none; stroke: #000000; stroke-width: 1.5; stroke-linecap: square"/>
   </g>
   <g id="line2d_47">
    <path d="M 173.556912 171.918837 
L 174.789583 170.51368 
L 175.773413 169.065042 
L 176.503569 167.584678 
L 176.977308 166.084404 
L 177.193947 164.575995 
L 177.154813 163.071095 
L 176.863179 161.581124 
L 176.324186 160.117198 
L 175.544752 158.690053 
L 174.533478 157.309973 
L 173.300535 155.986727 
L 171.857556 154.729515 
L 169.867088 153.320054 
L 167.617626 152.03155 
L 165.136105 150.876084 
L 162.451363 149.864193 
L 159.593835 149.004809 
L 156.084038 148.204569 
L 152.43426 147.630423 
L 148.697638 147.287889 
L 144.927804 147.179327 
L 141.17825 147.303952 
L 137.501703 147.657876 
L 133.949514 148.234182 
L 130.571053 149.023007 
L 127.413124 150.01167 
L 124.915045 151.00658 
L 122.636478 152.125929 
L 120.60053 153.357319 
L 118.827821 154.687206 
L 117.336262 156.101014 
L 116.140849 157.583271 
L 115.379567 158.859088 
L 114.83741 160.161471 
L 114.517896 161.480494 
L 114.422868 162.806082 
L 114.552459 164.128089 
L 114.905068 165.436377 
L 115.477358 166.720898 
L 116.264261 167.971772 
L 117.259005 169.17937 
L 118.715048 170.558309 
L 120.440514 171.846323 
L 122.414625 173.029222 
L 124.613687 174.094059 
L 127.011376 175.029309 
L 130.021412 175.943463 
L 133.213995 176.654901 
L 136.537635 177.154155 
L 139.939033 177.435315 
L 143.36405 177.496111 
L 146.758683 177.337935 
L 150.070042 176.96577 
L 153.24728 176.38806 
L 156.242478 175.616503 
L 159.011438 174.66578 
L 161.514388 173.553239 
L 163.421558 172.485674 
L 165.088972 171.327124 
L 166.501064 170.091923 
L 168.094195 168.124056 
L 168.820652 166.764747 
L 169.209393 165.613949 
L 169.400487 164.456414 
L 169.394897 163.30111 
L 169.195096 162.156838 
L 168.804999 161.032176 
L 168.093254 159.720113 
L 167.126828 158.461865 
L 165.919879 157.270256 
L 164.488863 156.157161 
L 162.560971 154.97217 
L 160.385926 153.923989 
L 157.999116 153.025631 
L 154.010834 151.831954 
L 151.331492 151.195477 
L 148.08931 150.673804 
L 145.981413 150.515061 
L 142.582298 150.571116 
L 139.253406 150.865767 
L 136.056089 151.390432 
L 133.048675 152.132479 
L 130.615808 152.947247 
L 128.403399 153.902652 
L 126.441528 154.983542 
L 124.756569 156.173064 
L 122.273447 158.345648 
L 121.256113 159.507101 
L 120.471966 160.72651 
L 120.035276 161.779665 
L 119.997321 163.071095 
L 120.22139 164.352432 
L 120.703341 165.609546 
L 121.436139 166.828603 
L 122.409921 167.996235 
L 123.612093 169.099697 
L 125.027469 170.127022 
L 126.924599 171.214674 
L 129.05616 172.168042 
L 131.386881 172.973695 
L 136.694754 174.4354 
L 139.792437 174.948962 
L 141.807759 175.126165 
L 145.070473 175.064655 
L 148.259201 174.767875 
L 151.3103 174.245595 
L 154.164171 173.512191 
L 156.456688 172.711768 
L 158.524155 171.778606 
L 160.338411 170.729302 
L 161.875891 169.581966 
L 164.091588 167.503278 
L 164.989955 166.405099 
L 165.663175 165.25833 
L 166.045213 164.27448 
L 166.061818 163.471217 
L 165.861396 162.277103 
L 165.423179 161.108833 
L 164.755678 159.978782 
L 163.86974 158.898668 
L 162.577516 157.716215 
L 161.029734 156.632507 
L 159.253566 155.661676 
L 157.2789 154.815941 
L 154.820373 154.015538 
L 149.288865 152.603332 
L 146.433404 152.225323 
L 143.479285 152.051941 
L 140.480838 152.089953 
L 137.49412 152.342394 
L 136.066355 152.607291 
L 133.392944 153.336645 
L 130.957554 154.243175 
L 129.055965 155.166533 
L 127.395283 156.195952 
L 125.997362 157.315247 
L 123.235158 160.021183 
L 122.563592 161.134536 
L 122.116841 162.286988 
L 121.903714 163.466509 
L 121.930629 164.660515 
L 122.201465 165.855986 
L 122.520574 166.646823 
L 123.454342 167.756338 
L 124.60466 168.804055 
L 126.200683 169.933251 
L 128.044202 170.946591 
L 130.104272 171.829631 
L 132.346715 172.570111 
L 138.129423 174.089375 
L 141.132564 174.497739 
L 143.076327 174.532083 
L 146.157009 174.384631 
L 149.142071 174.016906 
L 151.972559 173.440098 
L 154.593897 172.669601 
L 156.957015 171.724569 
L 158.779253 170.772024 
L 160.347032 169.719639 
L 161.454878 168.745713 
L 164.050001 166.059014 
L 164.65422 164.963406 
L 164.94206 164.023 
L 164.861906 162.8819 
L 164.552941 161.759807 
L 164.022228 160.668729 
L 163.279123 159.620099 
L 162.159161 158.464642 
L 160.78739 157.397266 
L 159.188575 156.432055 
L 157.118759 155.469752 
L 154.833126 154.67221 
L 149.665918 153.26066 
L 146.988595 152.854707 
L 144.205007 152.640833 
L 141.366254 152.626339 
L 138.52529 152.815005 
L 136.461921 153.138918 
L 133.928977 153.835536 
L 131.624346 154.699677 
L 129.588796 155.712637 
L 128.056359 156.704364 
L 125.794835 158.527492 
L 124.684791 159.666232 
L 123.842863 160.876918 
L 123.348252 161.959306 
L 123.072838 163.071095 
L 123.02342 164.200497 
L 123.204431 165.335281 
L 123.617817 166.462896 
L 124.334677 167.345158 
L 125.596546 168.508616 
L 127.117718 169.576745 
L 128.872071 170.534147 
L 130.829979 171.367295 
L 134.154511 172.48037 
L 136.719451 173.181111 
L 139.47559 173.693446 
L 141.640706 173.925695 
L 144.584313 173.8883 
L 147.463939 173.638663 
L 150.222276 173.185521 
L 152.805652 172.541741 
L 155.165164 171.72394 
L 157.257653 170.752018 
L 158.840579 169.792913 
L 160.17087 168.749692 
L 160.678096 168.286892 
L 160.678096 168.286892 
" clip-path="url(#p31dc4f0d04)" style="fill: none; stroke: #000000; stroke-width: 1.5; stroke-linecap: square"/>
   </g>
   <g id="line2d_48">
    <path d="M 198.550902 149.175017 
L 200.280612 146.908711 
L 201.708474 144.600547 
L 202.831436 142.261898 
L 203.648181 139.90406 
L 204.159073 137.538185 
L 204.34266 135.7651 
L 204.356702 133.998186 
L 204.203085 132.241872 
L 203.741569 129.924074 
L 202.992949 127.642733 
L 201.965258 125.407377 
L 200.667731 123.227096 
L 199.110718 121.110512 
L 197.305594 119.065756 
L 195.264666 117.100447 
L 193.001093 115.221671 
L 190.528791 113.435975 
L 187.862356 111.749349 
L 185.016979 110.167226 
L 181.232589 108.343888 
L 177.224795 106.699655 
L 173.02607 105.241397 
L 168.669521 103.974602 
L 164.188692 102.903388 
L 159.617366 102.030514 
L 154.989378 101.357399 
L 150.338441 100.884142 
L 145.697968 100.609542 
L 141.100904 100.531127 
L 136.579561 100.645177 
L 132.16545 100.946755 
L 127.889121 101.429739 
L 123.78 102.086856 
L 119.86622 102.90972 
L 116.17446 103.888878 
L 112.729782 105.013855 
L 109.555461 106.273211 
L 106.672824 107.654599 
L 104.10109 109.144835 
L 101.85721 110.729972 
L 99.955715 112.395386 
L 98.68917 113.775314 
L 97.65436 115.188882 
L 96.855035 116.627914 
L 96.293771 118.084113 
L 95.971937 119.549097 
L 95.889672 121.014448 
L 96.045869 122.471751 
L 96.438164 123.912642 
L 97.062935 125.328857 
L 97.915306 126.712278 
L 98.989163 128.054986 
L 100.27718 129.349304 
L 101.770847 130.587851 
L 103.912328 132.04692 
L 106.33878 133.394993 
L 109.02654 134.62027 
L 111.949715 135.712155 
L 115.080446 136.661374 
L 118.38919 137.460066 
L 122.55106 138.210954 
L 126.869384 138.727979 
L 131.287567 139.006446 
L 135.748627 139.045022 
L 140.196088 138.84571 
L 144.574855 138.413762 
L 148.832042 137.757525 
L 152.917751 136.888238 
L 156.785759 135.81978 
L 160.394127 134.568376 
L 163.705704 133.152271 
L 166.215406 131.860698 
L 168.481093 130.480794 
L 170.489869 129.025283 
L 172.23159 127.507224 
L 173.698868 125.939871 
L 174.445452 124.981336 
L 174.806439 124.28 
L 175.709926 122.657921 
L 176.333581 121.026254 
L 176.680515 119.39768 
L 176.756189 117.78445 
L 176.568274 116.198296 
L 176.126492 114.650338 
L 175.442451 113.151017 
L 174.529468 111.710022 
L 173.402384 110.33624 
L 172.077385 109.03771 
L 170.250626 107.588815 
L 168.195666 106.269164 
L 165.945831 105.087449 
L 163.535546 104.050411 
L 160.567581 103.029658 
L 157.485049 102.216521 
L 155.935907 101.762845 
L 153.153875 101.039754 
L 150.10393 100.478492 
L 146.821135 100.097493 
L 144.845771 100.0187 
L 141.426266 100.178894 
L 138.197312 100.536111 
L 135.203365 101.073549 
L 132.483634 101.772085 
L 130.071558 102.610615 
L 127.994368 103.566421 
L 126.272723 104.615573 
L 125.090685 105.570414 
L 124.184768 106.559882 
L 124.060741 106.72705 
L 122.293266 107.957042 
L 120.977123 109.116958 
L 119.869238 110.366292 
L 118.991726 111.695959 
L 118.645847 112.387713 
L 118.759878 112.778657 
L 119.305392 113.699408 
L 120.201482 114.745177 
L 121.340358 115.714196 
L 122.69748 116.594932 
L 124.520559 117.49777 
L 126.55783 118.254382 
L 129.08589 118.928385 
L 131.755173 119.391493 
L 134.676032 119.864705 
L 136.978346 120.757598 
L 139.556612 121.508691 
L 142.370975 122.095859 
L 144.227479 122.309995 
L 147.089749 121.62845 
L 149.66409 120.774836 
L 151.905684 119.778624 
L 153.567656 118.814916 
L 154.934348 117.788508 
L 155.997882 116.721812 
L 156.757203 115.636995 
L 157.116104 114.862963 
L 157.129903 114.515832 
L 158.59363 113.615755 
L 159.643183 112.708454 
L 160.338813 111.844185 
L 160.804902 110.926648 
L 160.893349 110.656542 
L 160.551466 110.194771 
L 159.512957 109.180305 
L 158.282349 108.279335 
L 156.690194 107.399394 
L 154.956815 106.686786 
L 152.912339 106.08894 
L 150.848002 105.704233 
L 149.256766 105.400847 
L 147.531503 104.885526 
L 145.358225 104.483595 
L 142.957138 104.284395 
L 140.403986 104.313697 
L 138.024295 104.554958 
L 135.663408 105.010022 
L 134.346067 105.406912 
L 133.509444 106.237992 
L 133.063 106.975857 
L 132.799568 107.377309 
L 131.551505 108.231481 
L 130.64391 109.089111 
L 129.957725 110.027674 
L 129.560621 110.90468 
L 129.370401 111.822787 
L 129.400936 112.770293 
L 129.663313 113.734404 
L 130.165481 114.701378 
L 130.911915 115.656695 
L 131.038578 115.791343 
L 132.57325 116.126503 
L 134.959552 116.432154 
L 136.933815 116.689607 
L 138.814873 117.410267 
L 140.952345 117.999141 
L 143.304962 118.43338 
L 144.686839 118.600323 
L 146.003737 118.227348 
L 148.101289 117.41115 
L 149.645095 116.585601 
L 150.866973 115.696033 
L 151.758703 114.771769 
L 152.269667 113.957248 
L 152.537214 113.156718 
L 152.493548 112.785907 
L 152.497843 112.676767 
L 153.6874 111.933549 
L 154.510349 111.148095 
L 155.002675 110.368701 
L 155.204409 109.726532 
L 155.050357 109.53082 
L 153.9333 108.807616 
L 152.521739 108.161314 
L 150.850769 107.657149 
L 149.171714 107.375373 
L 147.431491 107.306366 
L 146.887515 107.215923 
L 145.552387 106.814453 
L 143.972427 106.570726 
L 142.22426 106.517685 
L 140.40285 106.679638 
L 138.741315 107.034379 
L 137.462105 107.498645 
L 137.298249 108.121286 
L 136.343055 108.795642 
L 135.704053 109.516006 
L 135.357913 110.238895 
L 135.261776 110.929534 
L 135.386661 111.642404 
L 135.744052 112.360701 
L 136.34 113.066342 
L 137.07018 113.667638 
L 137.613684 113.723387 
L 139.49818 113.861524 
L 140.967555 114.387252 
L 142.834571 114.812283 
L 144.91296 115.051039 
L 145.253779 114.985546 
L 146.524914 114.304717 
L 147.451769 113.568821 
L 147.981417 112.898505 
L 148.240076 112.239491 
L 148.242793 111.615806 
L 148.090615 111.18451 
L 147.925628 111.018214 
L 147.983616 110.988524 
" clip-path="url(#p31dc4f0d04)" style="fill: none; stroke: #000000; stroke-width: 1.5; stroke-linecap: square"/>
   </g>
   <g id="line2d_49">
    <path d="M 173.556912 171.918837 
L 198.550902 149.175017 
" clip-path="url(#p31dc4f0d04)" style="fill: none; stroke: #000000; stroke-width: 1.5; stroke-linecap: square"/>
   </g>
   <g id="line2d_50">
    <path d="M 160.678096 168.286892 
L 147.983616 110.988524 
" clip-path="url(#p31dc4f0d04)" style="fill: none; stroke: #000000; stroke-width: 1.5; stroke-linecap: square"/>
   </g>
   <g id="line2d_51">
    <path d="M 42.280749 203.392644 
" clip-path="url(#p31dc4f0d04)" style="fill: none; stroke: #ffffff; stroke-width: 1.5; stroke-linecap: square"/>
   </g>
   <g id="line2d_52">
    <path d="M 37.756232 95.38282 
" clip-path="url(#p31dc4f0d04)" style="fill: none; stroke: #ffffff; stroke-width: 1.5; stroke-linecap: square"/>
   </g>
   <g id="line2d_53">
    <path d="M 118.594549 138.830667 
" clip-path="url(#p31dc4f0d04)" style="fill: none; stroke: #ffffff; stroke-width: 1.5; stroke-linecap: square"/>
   </g>
   <g id="line2d_54">
    <path d="M 117.553742 36.252826 
" clip-path="url(#p31dc4f0d04)" style="fill: none; stroke: #ffffff; stroke-width: 1.5; stroke-linecap: square"/>
   </g>
   <g id="line2d_55">
    <path d="M 172.343525 245.440017 
" clip-path="url(#p31dc4f0d04)" style="fill: none; stroke: #ffffff; stroke-width: 1.5; stroke-linecap: square"/>
   </g>
   <g id="line2d_56">
    <path d="M 173.674938 134.096752 
" clip-path="url(#p31dc4f0d04)" style="fill: none; stroke: #ffffff; stroke-width: 1.5; stroke-linecap: square"/>
   </g>
   <g id="line2d_57">
    <path d="M 242.200478 174.922763 
" clip-path="url(#p31dc4f0d04)" style="fill: none; stroke: #ffffff; stroke-width: 1.5; stroke-linecap: square"/>
   </g>
   <g id="line2d_58">
    <path d="M 246.436426 69.261622 
" clip-path="url(#p31dc4f0d04)" style="fill: none; stroke: #ffffff; stroke-width: 1.5; stroke-linecap: square"/>
   </g>
  </g>
 </g>
 <defs>
  <clipPath id="p31dc4f0d04">
   <rect x="7.2" y="7.2" width="266.112" height="266.112"/>
  </clipPath>
 </defs>
</svg>
